<svg xmlns="http://www.w3.org/2000/svg" width="212" height="57" viewBox="0 0 212 57" fill="none">
<path d="M201.551 30.9381C201.636 32.6458 203.145 33.8981 205.564 33.8981C207.614 33.8981 209.065 33.0159 209.065 31.6781C209.065 29.8566 207.471 29.7141 205.308 29.4581C202.064 29.0596 199.473 28.4049 199.473 25.3879C199.473 22.7409 201.893 21.0048 205.166 21.0332C208.467 21.0615 210.858 22.5984 211.086 25.6156H208.695C208.524 24.1356 207.158 23.0255 205.166 23.0255C203.173 23.0255 201.779 23.8793 201.779 25.2172C201.779 26.811 203.316 27.0104 205.422 27.2664C208.723 27.6649 211.371 28.291 211.371 31.5073C211.371 34.2113 208.78 35.8904 205.564 35.8904C201.807 35.8904 199.217 34.1258 199.16 30.9381H201.551Z" fill="white"/>
<path d="M191.72 23.3629H189.102V21.2281H191.72V17.1582H194.054V21.2284H196.829L197.636 23.3631H194.054V31.8856C194.054 33.1096 194.481 33.5647 195.733 33.5647H196.828L197.637 35.6995H195.506C192.716 35.6995 191.72 34.4755 191.72 31.914V23.3629Z" fill="white"/>
<path d="M187.967 27.6176V35.7008H185.633V27.7598C185.633 24.7429 184.238 23.149 181.705 23.149C178.973 23.149 177.322 25.1699 177.322 28.4429V35.7008H174.988V21.1853H177.009L177.322 23.1493C178.176 22.0394 179.656 21.0145 182.104 21.0145C185.377 21.0145 187.967 22.8077 187.967 27.6176Z" fill="white"/>
<path d="M159.105 28.4683C159.105 24.0566 161.895 21.0397 165.993 21.0397C170.092 21.0397 172.767 23.6298 172.881 27.9274C172.881 28.2406 172.853 28.5822 172.824 28.9237H161.553V29.1228C161.638 31.8837 163.375 33.8191 166.136 33.8191C168.185 33.8191 169.779 32.7376 170.263 30.8591H172.625C172.056 33.7622 169.665 35.8969 166.307 35.8969C161.952 35.8969 159.106 32.9083 159.106 28.4683H159.105ZM170.377 26.9883C170.149 24.4837 168.441 23.0889 166.022 23.0889C163.887 23.0889 161.923 24.6258 161.695 26.9883H170.377Z" fill="white"/>
<path d="M156.904 27.3823V35.7501H154.57V27.5245C154.57 24.6783 153.317 23.1983 151.126 23.1983C148.706 23.1983 147.226 25.0199 147.226 27.9799V35.7501H144.892V27.5245C144.892 24.6783 143.611 23.1983 141.391 23.1983C139 23.1983 137.549 25.1907 137.549 28.0938V35.7501H135.215V21.2346H137.236L137.549 23.2269C138.317 22.174 139.541 21.0638 141.79 21.0638C143.811 21.0638 145.547 21.9746 146.372 23.8248C147.255 22.2595 148.82 21.0638 151.41 21.0638C154.427 21.0638 156.904 22.8001 156.904 27.3823Z" fill="white"/>
<path d="M119.758 21.2254H122.234L126.703 32.8094L131.029 21.2254H133.505L126.327 39.429C125.417 41.7629 124.876 42.6737 122.826 42.6737H120.718V40.5389H122.115C123.453 40.5389 123.68 40.1974 124.221 38.8312L125.422 35.8261L119.758 21.2251L119.758 21.2254Z" fill="white"/>
<path d="M120.719 33.5723V35.707H119.548C117.612 35.707 116.957 34.8818 116.929 33.4584C116.018 34.7677 114.567 35.8778 112.062 35.8778C108.874 35.8778 106.711 34.2839 106.711 31.6369C106.711 28.7338 108.732 27.1113 112.546 27.1113H116.815V26.115C116.815 24.2366 115.477 23.0981 113.2 23.0981C111.151 23.0981 109.785 24.0658 109.5 25.5458H107.166C107.508 22.6996 109.813 21.0203 113.314 21.0203C117.014 21.0203 119.149 22.8704 119.149 26.2572V32.6043C119.149 33.3726 119.434 33.572 120.088 33.572H120.719V33.5723ZM116.815 29.0753H112.318C110.24 29.0753 109.073 29.8437 109.073 31.4947C109.073 32.9178 110.297 33.8855 112.233 33.8855C115.136 33.8855 116.815 32.2061 116.815 29.787V29.0756L116.815 29.0753Z" fill="white"/>
<path d="M105.179 28.4922C105.179 32.9323 102.219 35.9209 98.2056 35.9209C95.7578 35.9209 94.107 34.9248 93.2245 33.5301V42.7013H90.8906V21.2344H92.9116L93.2248 23.5682C94.1925 22.2304 95.7581 21.0636 98.2058 21.0636C102.219 21.0636 105.179 23.7676 105.179 28.4922H105.179ZM102.788 28.4922C102.788 25.3329 100.852 23.1414 97.9776 23.1414C95.1028 23.1414 93.1959 25.3331 93.1959 28.4353C93.1959 31.5375 95.1314 33.843 97.9776 33.843C100.824 33.843 102.788 31.6514 102.788 28.4922Z" fill="white"/>
<path d="M86.6159 15.8567H82.5977V35.8072H86.6159V15.8567Z" fill="white"/>
<path d="M80.389 32.4152V35.8085H78.3366C76.2558 35.8085 75.6005 34.8112 75.6304 33.4149C74.6042 35.0394 73.1223 35.9801 70.8419 35.9801C67.6788 35.9801 65.3984 34.4691 65.3984 31.6767C65.3984 28.5698 67.736 26.8028 72.125 26.8028H75.0321V26.0885C75.0321 24.778 74.0914 23.9228 72.412 23.9228C70.8438 23.9228 69.7898 24.6353 69.62 25.7181H65.7439C66.0291 22.8683 68.651 20.9869 72.5269 20.9869C76.6307 20.9869 78.9966 22.8111 78.9966 26.3165V31.5036C78.9966 32.273 79.3106 32.4154 79.9373 32.4154H80.3893L80.389 32.4152ZM75.031 29.4801H72.0951C70.4138 29.4801 69.4448 30.1639 69.4448 31.3898C69.4448 32.4154 70.2711 33.071 71.6105 33.071C73.7191 33.071 75.004 31.7604 75.0305 29.7636L75.031 29.4801Z" fill="white"/>
<path d="M63.8482 28.4541C63.8482 32.9856 60.9978 35.9777 57.0367 35.9777C55.2707 36.0414 53.5866 35.2322 52.5331 33.8138L52.1344 35.809H48.6289V15.8567H52.6472V23.0102C53.7256 21.6862 55.3581 20.9386 57.065 20.9866C60.9975 20.9866 63.8479 23.8081 63.8479 28.4541M59.7725 28.4824C59.7725 25.9744 58.3478 24.2643 56.1526 24.2643C53.9575 24.2643 52.59 25.9744 52.59 28.4538C52.59 30.9333 53.9578 32.7002 56.1526 32.7002C58.3475 32.7002 59.7725 30.9902 59.7725 28.4821" fill="white"/>
<path d="M31.0625 28.4825C31.0625 23.9792 34.1123 20.9867 38.7861 20.9867C43.46 20.9867 46.51 23.9792 46.51 28.4825C46.51 32.9857 43.4602 35.9783 38.7864 35.9783C34.1126 35.9783 31.0625 32.9857 31.0625 28.4825ZM42.434 28.4825C42.434 26.0033 41.0377 24.2644 38.7859 24.2644C36.5341 24.2644 35.166 26.003 35.166 28.4825C35.166 30.9619 36.5346 32.7006 38.7859 32.7006C41.0371 32.7006 42.434 30.9619 42.434 28.4825Z" fill="white"/>
<path d="M28.9441 15.8567H24.9258V35.8072H28.9441V15.8567Z" fill="white"/>
<path d="M15.2348 35.8599C13.9885 35.986 12.812 35.6917 12.3445 35.3033C12.2013 35.1714 12.1047 34.9965 12.0694 34.8052C12.012 34.5366 12.1047 34.258 12.3118 34.0775C12.7443 33.7943 13.2731 33.6992 13.7771 33.8142C14.2083 33.8701 14.6425 33.8978 15.0775 33.8975C19.4783 33.8975 22.3207 31.2316 22.3207 27.1047C22.3207 22.9779 19.4758 20.3102 15.0772 20.3102C10.6787 20.3102 7.83374 22.9771 7.83374 27.1042C7.83374 29.4031 8.71601 31.2482 10.2588 32.4323C9.51547 32.8796 8.94407 33.5642 8.63723 34.3758C8.37997 35.3001 8.67574 36.2901 9.39792 36.9219L9.57891 37.0976L9.35236 37.2116C7.66836 38.0581 6.85581 39.2409 7.06297 40.5438C7.08437 40.6734 7.11558 40.8011 7.15686 40.9257C7.90925 43.5236 11.6845 44.6078 15.4082 44.4915C17.539 44.4248 23.4391 43.5065 23.5005 39.8342C23.5838 34.8027 17.8376 35.6036 15.5799 35.8282L15.2348 35.8599ZM15.0772 23.5858C16.9052 23.5858 18.0405 24.9347 18.0405 27.1055C18.0405 29.2763 16.9052 30.6252 15.0772 30.6252C13.2492 30.6252 12.1127 29.2763 12.1127 27.1055C12.1127 24.9347 13.248 23.5858 15.0772 23.5858ZM12.3294 38.552C12.4173 38.5402 12.5348 38.5225 12.6753 38.5011C15.1434 38.1364 18.5341 37.7712 19.4841 38.844C19.7413 39.1415 19.8199 39.5541 19.6895 39.9251C19.4143 40.9282 17.2501 41.3702 15.2187 41.3702C14.6823 41.3712 14.1461 41.3385 13.6137 41.2718C11.9823 41.0593 11.0799 40.5566 11.0736 39.8561C11.0565 39.1538 11.9388 38.6036 12.3312 38.5505" fill="white"/>
<path d="M19.1808 17.3922C13.2199 15.2156 6.6359 18.2863 4.45928 24.2471C4.06189 25.3218 3.8361 26.4598 3.78191 27.6068C3.65547 30.0453 4.29669 32.4657 5.62434 34.5249C6.17527 35.3558 5.94948 36.4757 5.11857 37.0356C4.28766 37.5866 3.16774 37.3608 2.60778 36.5299C-2.13382 29.4402 -0.228139 19.8578 6.85265 15.1163C8.14418 14.2492 9.56214 13.5899 11.0524 13.1474C14.1954 12.2171 17.5461 12.2894 20.6349 13.3642C21.7548 13.7525 22.3509 14.9808 21.9535 16.1007C21.5652 17.2206 20.3369 17.8167 19.2169 17.4193L19.1718 17.4012" fill="url(#paint0_linear_8893_262)"/>
<path d="M19.1808 17.3922C13.2199 15.2156 6.6359 18.2863 4.45928 24.2471C4.06189 25.3218 3.8361 26.4598 3.78191 27.6068C3.65547 30.0453 4.29669 32.4657 5.62434 34.5249C6.17527 35.3558 5.94948 36.4757 5.11857 37.0356C4.28766 37.5866 3.16774 37.3608 2.60778 36.5299C-2.13382 29.4402 -0.228139 19.8578 6.85265 15.1163C8.14418 14.2492 9.56214 13.5899 11.0524 13.1474C14.1954 12.2171 17.5461 12.2894 20.6349 13.3642C21.7548 13.7525 22.3509 14.9808 21.9535 16.1007C21.5652 17.2206 20.3369 17.8167 19.2169 17.4193L19.1718 17.4012" fill="url(#paint1_linear_8893_262)"/>
<path d="M19.1808 17.3922C13.2199 15.2156 6.6359 18.2863 4.45928 24.2471C4.06189 25.3218 3.8361 26.4598 3.78191 27.6068C3.65547 30.0453 4.29669 32.4657 5.62434 34.5249C6.17527 35.3558 5.94948 36.4757 5.11857 37.0356C4.28766 37.5866 3.16774 37.3608 2.60778 36.5299C-2.13382 29.4402 -0.228139 19.8578 6.85265 15.1163C8.14418 14.2492 9.56214 13.5899 11.0524 13.1474C14.1954 12.2171 17.5461 12.2894 20.6349 13.3642C21.7548 13.7525 22.3509 14.9808 21.9535 16.1007C21.5652 17.2206 20.3369 17.8167 19.2169 17.4193L19.1718 17.4012" fill="url(#paint2_linear_8893_262)"/>
<path d="M23.0553 15.7756C23.0553 17.0851 21.9896 18.1508 20.68 18.1508C19.3704 18.1508 18.3047 17.0851 18.3047 15.7756C18.3047 14.466 19.3704 13.4003 20.68 13.4003C21.9896 13.4003 23.0553 14.466 23.0553 15.7756Z" fill="white"/>
<defs>
<linearGradient id="paint0_linear_8893_262" x1="7.91881" y1="12.7163" x2="19.2762" y2="15.463" gradientUnits="userSpaceOnUse">
<stop stop-color="#3FA3DE"/>
<stop offset="1" stop-color="#3FA3DE" stop-opacity="0"/>
</linearGradient>
<linearGradient id="paint1_linear_8893_262" x1="4.62412" y1="33.6305" x2="13.6648" y2="22.1871" gradientUnits="userSpaceOnUse">
<stop stop-color="#262AFF"/>
<stop offset="1" stop-color="#262AFF" stop-opacity="0"/>
</linearGradient>
<linearGradient id="paint2_linear_8893_262" x1="4.94203" y1="23.4623" x2="13.4362" y2="17.5367" gradientUnits="userSpaceOnUse">
<stop stop-color="#262AFF" stop-opacity="0.2"/>
<stop offset="1" stop-color="#262AFF" stop-opacity="0"/>
</linearGradient>
</defs>
</svg>
