<svg xmlns="http://www.w3.org/2000/svg" viewBox="-2 205 682 105" fill="none">
  <g fill="#0d5699">
    <!-- A -->
    <path d="M46.316 294.148h33.485v-3.812c-6.477-.813-8.45-1.304-12.68-12.86-4.645-12.366-10.039-26.972-15.164-41.405l-8.059-22.735-6.008 1.649L13.184 277.86c-4.273 11.019-5.871 11.594-13.184 12.476v3.812H27.562v-3.812l-3.023-.34c-5.66-.632-5.875-1.942-4.082-8.098 1.59-5.297 3.191-10.664 4.691-14.23h21.664c1.848 4.484 4.18 10.882 5.762 14.946 2.07 5.265 1.441 6.607-3.059 7.265l-3.2.457v3.812zm-10.75-57.887h.348l8.84 25.211H26.82l8.746-25.211z"/>
    <!-- u -->
    <path d="M114.828 251.637c0-4.477-.594-5.258-3.758-5.793l-3.8-.602v-3.55c6.129-.31 16.766-1.497 22.516-2.278v41.546c0 5.075.492 6.438 4.386 6.438h3.805v3.777c-7.336 1.055-15.176 2.766-22.18 4.543l-.969-.84v-7.832c-2.309 1.696-4.364 3.262-7.067 4.91-3.781 2.297-6.863 3.578-10.711 3.578-10.211 0-15.836-6.793-15.836-16.172v-27.727c0-4.476-.597-5.257-3.757-5.792l-3.317-.602v-3.55c5.625-.31 15.656-1.497 22.039-2.278v36.898c0 7.196 3.656 10.008 8.254 10.008 3.438 0 6.844-1.601 10.395-4.68v-30.004z"/>
    <!-- t -->
    <path d="M159.945 276.125c0 9.383 4.629 11.137 6.844 11.137 1.937 0 4.035-.641 6.363-1.969l1.688 3.66-10.516 5.3c-1.938.926-3.774 1.286-4.625 1.286-9.446 0-14.707-4.102-14.707-14.977v-33.969h-7.832l-.864-1.562 3.926-4.684h4.77v-7.461l12.828-9.66 2.125 1.031v16.09h12.094c1.578 1.348 1.356 5.246-.848 6.246h-11.246v29.532z"/>
    <!-- h -->
    <path d="M199.512 246.742c4.133-4.082 10.309-7.82 16.703-7.82 11.125 0 17.262 6.965 17.262 18.488v24.789c0 6.86.613 7.324 7.375 8.137v3.812h-28.723v-3.812c5.91-.812 6.395-1.277 6.395-8.137v-23.445c0-7.563-4.234-10.774-9.336-10.774-3.371 0-6.922 1.235-9.676 4.024v30.195c0 6.86.586 7.325 5.684 8.137v3.812h-29.45v-3.812c8.176-.813 8.801-1.278 8.801-8.137v-59.086c0-7.235-.238-7.41-7.984-7.879v-3.52c5.422-.847 14.844-2.597 22.949-4.312v40.34z"/>
    <!-- o -->
    <path d="M271.773 238.922c-13.738 0-28.906 10.293-28.906 29.684 0 13.078 9.43 26.934 28.273 26.934 14.09 0 28.18-9.57 28.18-29.524 0-14.222-10.531-27.094-27.547-27.094zm-12.027 24.773c0-13.25 5.183-19.73 10.18-19.73 7.824 0 12.515 9.43 12.515 25.762 0 17.7-5.492 20.734-9.922 20.734-7.864 0-12.773-11.395-12.773-26.766z"/>
    <!-- r -->
    <path d="M325.504 282.2c0 6.831.598 7.323 10.012 8.136v3.812h-33.305v-3.812c7.692-.813 8.32-1.305 8.32-8.137v-27.125c0-7.464-.234-7.558-8.097-8.449v-3.3c7.152-1.009 14.98-2.641 23.07-4.403v12.149h.242c1.563-2.477 3.418-5.399 5.72-7.828 2.331-2.477 5.023-4.32 8.089-4.32 4.649 0 8.203 3.394 8.203 7.473 0 4.051-2.707 7.602-5.785 8.68-1.594.672-2.781.218-3.777-.496-2.059-1.649-4.168-2.575-6.106-2.575-2.07 0-4.531.926-6.586 6.024v23.172z"/>
    <!-- i -->
    <path d="M372.73 219.61c0 4.965-3.914 8.84-8.871 8.84-4.754 0-8.899-3.876-8.899-8.84 0-4.98 4.145-8.895 8.899-8.895 4.957 0 8.871 3.914 8.871 8.895zM357.398 255.074c0-7.465-.23-7.559-8.058-8.449v-3.3c7.191-1.009 15.297-2.637 23.024-4.403v43.125c0 6.984.617 7.476 8.402 8.289v3.812h-31.79v-3.812c7.832-.813 8.422-1.305 8.422-8.289v-27.172z"/>
    <!-- z -->
    <path d="M429.414 240.324l1.09 1.762-28.137 46.867h9.684c8.41 0 11.691-1.523 15.797-8.484l1.797-3.043 4.406 1.641c-2.191 6.074-3.777 10.601-5.636 15.082h-44.149l-1.219-1.793 29.004-46.848h-8.601c-8.086 0-10.25 1.856-13.059 7.887l-1.742 3.75-4.383-1.644c1.445-4.633 3.375-12.383 4.508-17.735h2.711c.617 1.801 1.933 2.559 6.601 2.559h25.328z"/>
    <!-- e -->
    <path d="M478.535 279.984c-4.93 3.305-8.723 4.735-13.227 4.735-9.332 0-17.656-6.324-17.656-20.031 12.16-.484 28.449-1.613 30.14-1.965 2.434-.473 2.797-.747 2.797-5.336 0-9.449-8.461-18.426-19.066-18.426-14.918 0-28.106 13.13-28.106 30.766 0 13.711 9.5 25.813 26.012 25.813 4.266 0 13.836-2.465 20.797-13.118l-1.691-2.438zm-30.348-20.805c.719-8.312 5.262-14.652 9.773-14.652 4.645 0 8.555 6.418 8.555 11.379 0 2.383-.476 2.89-2.285 2.89l-16.043.383z"/>
    <!-- dot -->
    <path d="M484.535 285.96c0-5.51 4.02-9.57 9.258-9.57 5.348 0 9.39 4.058 9.39 9.57 0 5.715-4.042 9.575-9.39 9.575-5.239 0-9.258-3.86-9.258-9.575z"/>
  </g>
  <!-- N -->
  <path d="M582.121 295.031h-7.45L526.06 235.363h-.258v25.332c0 12.867.739 19.645 1.211 23.453.633 4.238 3.696 5.848 11.817 6.188v3.812h-30.365v-3.812c6.121-.234 9.055-1.949 9.625-6.188.547-3.808 1.278-10.539 1.278-23.453v-24.281c0-7.782 0-10.802-2.227-13.707-2.332-2.97-5.398-3.743-10.39-4.153v-3.84h21.277l47.363 55.079h.246v-21.59c0-12.836-.703-19.567-1.211-23.426-.621-4.313-3.695-5.813-11.805-6.223v-3.84h30.375v3.84c-6.16.238-9.055 1.91-9.672 6.223-.485 3.86-1.203 10.59-1.203 23.426v46.832z" fill="#0d5699"/>
  <!-- e -->
  <path d="M631.379 279.984c-4.938 3.305-8.711 4.735-13.274 4.735-9.277 0-17.586-6.324-17.586-20.031 12.11-.484 28.387-1.613 30.102-1.965 2.441-.473 2.797-.747 2.797-5.336 0-9.449-8.43-18.426-19.074-18.426-14.918 0-28.141 13.13-28.141 30.766 0 13.711 9.563 25.813 26.027 25.813 4.309 0 13.871-2.465 20.832-13.118l-1.683-2.438zm-30.352-20.805c.703-8.312 5.239-14.652 9.75-14.652 4.637 0 8.547 6.418 8.547 11.379 0 2.383-.434 2.89-2.316 2.89l-15.981.383z" fill="#0d5699"/>
  <!-- t -->
  <path d="M657.234 276.125c0 9.383 4.621 11.137 6.863 11.137 1.91 0 4.02-.641 6.324-1.969l1.723 3.66-10.524 5.3c-1.945.926-3.738 1.286-4.641 1.286-9.398 0-14.75-4.102-14.75-14.977v-33.969h-7.762l-.859-1.562 3.922-4.684h4.699v-7.461l12.903-9.66 2.101 1.031v16.09h12.098c1.601 1.348 1.32 5.246-.848 6.246h-11.25v29.532z" fill="#0d5699"/>
</svg>