<?xml version="1.0" encoding="UTF-8"?><svg xmlns="http://www.w3.org/2000/svg" viewBox="0 0 100 22" width="100" height="22" fill="none" aria-label="Avalara Logo" role="img"><path fill="#059bd2" d="M10.167 16.561s-1.055-1.31-1.68-2.017l-.877 2.093c1.264 1.897 2.096 3.538 2.557 4.32.892-1.535 3.077-6.082 7.58-10.343l-.505-1.19c-2.928 2.199-5.425 5-7.075 7.137"></path><path fill="#fc6600" fill-rule="evenodd" d="M55.295 16.998c0 1.22.699 1.852 1.813 2.033v2.966c-3.329-.046-5.098-1.672-5.098-4.758V0h3.285zM65.61 6.414c-4.117 0-7.372 3.417-7.372 7.738s3.151 7.739 7.09 7.739c2.007 0 3.612-.768 4.564-1.882l.178.06v1.52h3.3V6.716h-3.3v1.039l-.148.06c-.996-.828-2.35-1.4-4.311-1.4m.402 12.692c-2.467 0-4.504-2.168-4.504-4.939 0-2.8 2.037-4.938 4.504-4.938 1.62 0 3.032.482 4.028 1.25v6.368c-.847 1.626-2.378 2.259-4.028 2.259m10.077 2.528h3.285V11.216a5.7 5.7 0 0 1 4.147-1.761h.699V6.414h-.416c-1.799 0-3.3.858-4.266 2.047l-.179-.06V6.715h-3.285v14.92zM41.575 6.414c-4.117 0-7.387 3.432-7.387 7.738 0 4.321 3.151 7.739 7.09 7.739 1.992 0 3.612-.768 4.563-1.882l.179.06v1.52h3.3V6.716h-3.3v1.039l-.149.06c-.98-.828-2.334-1.4-4.296-1.4m.402 12.692c-2.468 0-4.504-2.168-4.504-4.939 0-2.8 2.021-4.938 4.504-4.938 1.62 0 3.032.482 4.028 1.25v6.368c-.847 1.626-2.378 2.259-4.028 2.259M92.233 6.414c-4.118 0-7.373 3.417-7.373 7.738s3.151 7.739 7.09 7.739c1.992 0 3.612-.768 4.564-1.882l.178.06v1.52h3.3V6.716h-3.3v1.039l-.149.06c-.996-.828-2.348-1.4-4.31-1.4m.401 12.692c-2.467 0-4.489-2.168-4.489-4.939 0-2.8 2.022-4.938 4.49-4.938 1.62 0 3.031.482 4.027 1.25v6.368c-.847 1.626-2.378 2.259-4.028 2.259" clip-rule="evenodd"></path><path fill="#fc6600" d="M16.737 21.575h3.582l-3.15-7.648a36 36 0 0 0-2.409 2.906zM30.977 6.73l-4.593 10.885h-.179L21.614 6.73H18.06l6.555 14.845h3.345L34.515 6.73zM11.728.798H8.577L0 21.575h3.582L9.781 6.76l.297-.798h.164l.297.798 1.843 4.396a34 34 0 0 1 2.646-2.409z"></path></svg>