<?xml version="1.0" encoding="utf-8"?>
<!-- Generator: Adobe Illustrator 27.0.0, SVG Export Plug-In . SVG Version: 6.00 Build 0)  -->
<svg version="1.1" id="Layer_1" xmlns="http://www.w3.org/2000/svg" xmlns:xlink="http://www.w3.org/1999/xlink" x="0px" y="0px"
	 viewBox="0 0 330 90" style="enable-background:new 0 0 330 90;" xml:space="preserve" width="300" height="82">
<style type="text/css">
	.st0{fill:#010101;}
	.st1{fill:#EFCB46;}
	.st2{fill:#FFFFFF;}
	.st3{fill:#FAFBFC;}
</style>
<path class="st0" d="M40,46.7c-1,0.4-1.7,1.1-1.8,2.3c-0.6,3.1-1,6.2-1,9.4c0,1.1-0.1,2.3-0.2,3.4c-0.1,0.4-0.3,0.9-0.5,1.3
	s-0.7,0.7-1.3,0.6c-1.1-0.2-2.2,0.1-2.9,1.1c-0.1,0.1-0.3,0.2-0.4,0.2c-0.1,0-0.3-0.2-0.3-0.3c-0.2-0.6,0.1-1,0.6-1.3
	c0.6-0.3,1.3-0.5,1.9-0.8c0.5-0.2,0.9-0.5,1-1.1c0.3-3.2,0.7-6.4,1.1-9.6c0.2-1.4,0.7-2.8,1-4.3c0.2-0.6,0.5-1,1-1.2
	c0.9-0.5,1.7-1.1,2.8-1.7c-0.3-0.4-0.7-0.9-1.1-1.4c-1,1-1.8,1.8-2.7,2.7c-1.6,1.7-3.1,3.2-5.3,4.2c-1.8,0.9-3.8,1-5.8,0.4
	c-0.4-0.1-0.8-0.3-1.2-0.6c-0.6-0.4-1.3-0.6-2-0.3c-2.4,0.7-4.5,0.2-6.8-0.4c-2.6-0.8-5.1-2-7.4-3.3c-0.7-0.4-1.4-0.9-2.1-1.3
	c-0.4-0.3-0.6-0.8-0.5-1.3c0.2-1.2,0.8-2.3,1.7-3.1c2.1-1.9,4.6-2.9,7.4-3.4c3.4-0.6,6.8-0.4,10.3,0c3.8,0.5,7.5,0.7,11.3,1
	c0.4,0,0.9-0.1,1.4-0.1c-1.3-0.8-2.5-1-3.8-1.3c-1.7-0.3-3.6-0.7-5.3-1.2c-0.7-0.2-1.3-0.6-2-1C26.6,34,26.3,34,26.1,34
	c-1.3,0.3-2.6,0.5-3.9,0.7c-0.2,0-0.4-0.2-0.6-0.3c0.2-0.2,0.3-0.4,0.5-0.5c1-0.2,1.9-0.3,2.9-0.5c0.5-0.1,1-0.5,1.6-0.7
	c0.3-0.1,0.7-0.2,1,0c0.3,0.1,0.6,0.4,1,0.6c0.5,0.3,1,0.5,1.6,0.6c2.5,0.4,5.1,0.8,7.4,1.7c0.4,0.2,0.9,0.3,1.4,0.5
	c0.4-0.4,0.4-0.8-0.1-1.2c-1.5-1.5-1.8-3.4-1.6-5.3c0.3-1.8,0.5-3.6,0.8-5.3c0.1-0.6,0.2-1.1,0.3-1.7c0.3-1.6-0.4-2.6-1.4-3.7
	c-0.3-0.3-0.8-0.6-1.2-1c-0.3-0.3-0.5-0.7-0.9-1.1c0.3,0,0.3-0.1,0.3-0.1c1.3,0.6,2.5,1.4,3.5,2.6c0.5,0.6,0.7,1.3,0.5,2.1
	c-0.3,1.9-0.7,3.8-1,5.7c-0.1,0.6-0.2,1.1-0.2,1.7c0,0.8-0.1,1.6,0.7,2.2c0.4,0.3,0.6,1,0.9,1.5c0.5,0.9,1.1,1,1.7,0.1
	c0.2-0.3,0.3-0.5,0.5-0.8c-1.3-1.9-0.5-4,1.7-4.6c0.5-0.2,1-0.4,1.5-0.8c0.1-0.1,0.1-0.3,0.1-0.5c0.1-0.3,0.3-0.6,0.4-0.7
	c0.4-0.1,0.5,0.3,0.5,0.6c0,0.1,0,0.1,0,0.2c0.3,0,0.6,0,0.9,0c0,0,0.1,0,0.1-0.1c0.2-0.3,0.1-0.9,0.6-0.8c0.2,0,0.3,0.5,0.3,0.8
	c0.1,0.2,0.1,0.3,0.2,0.4c0.5,0.3,1,0.6,1.7,0.7c1.1,0.3,2.2,1.5,2.4,2.6c0.1,0.8-0.2,1.4-0.7,1.9c0.3,0.3,0.4,0.7,0.7,1
	c0.4,0.5,0.9,0.6,1.4,0.1c0.3-0.3,0.4-0.7,0.6-1c0.3-0.4,0.5-0.8,0.7-1.2c0.1-0.3,0.2-0.5,0.2-0.7c0.1-1.9-0.3-3.7-0.8-5.5
	c-0.2-1-0.3-2-0.4-3c-0.1-0.7,0.1-1.3,0.5-1.9c1-1.3,2.4-2,3.8-2.6c0.1,0,0.1,0.1,0.2,0.1c-0.2,0.3-0.2,0.6-0.4,0.8
	c-0.4,0.4-1,0.8-1.5,1.2c-1.2,0.9-1.9,2.1-1.6,3.7c0.4,2.3,0.9,4.5,1.1,6.7c0.2,1,0.1,2-0.1,3c-0.2,1.3-0.9,2.4-1.9,3.3
	c0.1,0.3,0.2,0.5,0.3,0.8c2.8-1.3,5.7-1.7,8.7-2.3c0.6-0.1,1.1-0.4,1.7-0.7c0.3-0.2,0.7-0.4,1-0.6c0.3-0.1,0.6-0.1,0.8,0
	c1,0.9,2.3,0.9,3.5,1.1c0.3,0.1,0.7,0.1,1,0.2c0.3,0,0.6,0.2,0.5,0.5c0,0.1-0.4,0.3-0.6,0.3c-1.3-0.3-2.6-0.5-3.9-0.8
	c-0.2,0-0.4-0.1-0.5,0c-1.5,1-3.2,1.4-5,1.7c-1.7,0.3-3.4,0.8-5.2,1.2c-0.3,0.1-0.7,0.3-1,0.5c1.7,0.3,3.2,0.2,4.8,0
	c3.9-0.4,7.9-1,11.8-1.3c3.7-0.3,7.3,0.1,10.7,1.6c1.5,0.6,2.8,1.6,3.8,2.8c0.2,0.2,0.3,0.4,0.5,0.7c1,1.6,0.7,2.8-0.9,3.7
	c-3,1.7-6,3.4-9.4,4.3c-1.2,0.3-2.5,0.5-3.8,0.6c-0.7,0.1-1.5-0.2-2.2-0.3c-0.7-0.1-1.3-0.2-1.9,0.2c-2.5,1.5-5.1,1.3-7.7,0.2
	c-1.9-0.9-3.4-2.4-4.8-3.8c-0.9-1-1.8-1.9-2.8-3c-0.4,0.5-0.7,0.9-1.1,1.4c1,0.7,2,1.3,3,1.9c0.3,0.2,0.6,0.5,0.7,0.9
	c1,2.8,1.5,5.7,1.7,8.6c0.2,1.9,0.3,3.8,0.5,5.7c0,0.4,0.3,0.6,0.7,0.8c0.7,0.3,1.4,0.5,2.1,0.9c0.6,0.3,0.8,0.8,0.6,1.4
	c-0.1,0.1-0.2,0.3-0.3,0.3c-0.2,0-0.3-0.1-0.4-0.2c-0.6-1-1.7-1.2-2.7-1.1c-1,0.1-1.6-0.2-1.8-1.1c-0.3-1-0.4-2-0.4-3.1
	c0-3.6-0.3-7.1-1-10.6c-0.3-1.1-0.9-1.7-1.9-2.2c0.1,0.2,0.1,0.3,0.1,0.5c1.3,2.8,1.4,5.8,1.1,8.8c-0.3,3.9-1.3,7.7-3.6,10.9
	c-0.9,1.3-2,2.5-3.3,3.5c-0.3,0.3-0.5,0.6-0.6,1c-0.2,0.8-0.3,1.6-0.4,2.3c-0.1,0-0.2,0-0.2,0c-0.1-0.7-0.3-1.4-0.3-2.1
	c-0.1-0.5-0.3-0.9-0.7-1.3c-3.8-3.1-5.8-7-6.6-11.7c-0.6-3.1-0.4-6.3,0.3-9.4c0.3-0.9,0.6-1.7,0.9-2.4C39.8,46.7,39.8,46.6,40,46.7
	C40.1,46.7,40,46.7,40,46.7z M56,41.2c-0.1,0-0.1,0-0.2,0H56c0,0.2,0,0.3,0.1,0.3c3.1,3.2,6.9,5.2,11.3,6.1c0.4,0.1,1,0,1.4-0.2
	c0.7-0.3,0.9-0.8,0.6-1.4c-0.6-1.2-1.6-2.1-3-2.2c-1.1-0.1-2.3-0.2-3.3-0.3C60.6,43.2,58.3,42.2,56,41.2z M51.2,45.9
	c-0.3-1.5-0.5-2.8-0.8-4.2c0-0.3,0.1-0.5,0.2-0.7c0.7-0.8,1.5-1.5,2.2-2.2c0.3-0.3,0.4-0.5,0.7-0.9c-1-0.2-2-0.3-3-0.4
	c-1.6-0.2-1.6-0.2-2.4-1.7c-0.4-0.9-0.9-1.7-1.4-2.8c-0.2,0.3-0.3,0.6-0.4,0.9c-0.4,1-0.9,2-1.4,2.9c0,0.3-0.3,0.5-0.6,0.5
	c-1,0.2-1.8,0.3-2.8,0.3c-0.3,0.1-0.8,0.2-1.3,0.3c0.9,0.9,1.6,1.6,2.4,2.3c0.8,0.7,1.2,1.4,0.8,2.4c-0.1,0.3-0.1,0.4-0.2,0.7
	c-0.2,0.8-0.3,1.6-0.4,2.5c1.3-0.6,2.4-1.2,3.6-1.8c0.4-0.3,0.9-0.3,1.3,0C48.7,44.7,49.9,45.3,51.2,45.9z M37.4,40.4L37.4,40.4
	c-0.3-0.1-0.5,0-0.8,0c-3.1-0.3-6.3-0.6-9.4-0.9c-1.7-0.2-3.4-0.4-5.2-0.5c-0.6,0-1.3,0.3-1.8,0.8c-0.7,0.5-0.7,1.2,0,1.7
	c0.4,0.3,0.9,0.6,1.4,0.7c1.3,0.3,2.6,0.6,4,0.7c2.6,0.3,5.2-0.3,7.6-1C34.6,41.3,36,40.8,37.4,40.4z M56.6,40.5
	c0.3,0.2,0.7,0.3,1.1,0.5c1.4,0.4,2.7,0.8,4.1,1.1c2.6,0.6,5.2,1,8,0.7c1.2-0.2,2.4-0.4,3.5-1.1c1-0.7,1-1.7,0-2.3
	c-0.3-0.2-0.6-0.3-1-0.4c-0.8-0.1-1.6-0.1-2.4-0.1c-2.4,0.3-4.7,0.6-7,0.9C60.8,40,58.7,40.2,56.6,40.5z M74,38.9
	c1.4,1.5,1.4,2.6-0.3,3.7c-0.7,0.4-1.6,0.8-2.4,1c-0.9,0.3-1.8,0.3-2.8,0.4c0,0.1,0,0.1,0,0.2c1.1,0.2,2.3,0.4,3.5,0.4
	c3.1,0.1,6.1-0.8,9.1-1.7c0.3-0.1,0.5-0.3,0.8-0.4c1-0.6,1-1.6,0-2.2c-0.6-0.3-1.3-0.6-2-0.7C77.9,39.3,76,39.1,74,38.9z M25.1,44
	c-0.2,0-0.3,0-0.4,0c-1.7-0.1-3.4-0.5-4.9-1.6c-1.4-1-1.4-2.1-0.1-3.2c0.1-0.1,0.2,0,0.3,0c-0.1-0.1-0.2-0.2-0.2-0.3
	C19,39,18.2,39,17.3,39.1c-1.5,0.3-3,0.5-4.5,0.9c-0.7,0.2-1.2,0.5-1.6,1.2c-0.2,0.4-0.2,0.8,0.3,1c2.6,1.4,5.4,2.2,8.4,2.4
	C21.8,44.7,23.5,44.6,25.1,44z M37.9,41.3L37.9,41.3c-0.2-0.1-0.3,0-0.4,0c-3.1,1.5-6.2,2.4-9.6,2.6c-0.9,0.1-1.7,0.4-2.4,0.8
	c-0.4,0.2-0.8,0.7-1,1.1c-0.4,0.9,0,1.6,1,1.7c0.3,0.1,0.8,0.1,1.1,0c4-0.8,7.5-2.5,10.5-5.3C37.2,42,37.5,41.7,37.9,41.3z
	 M51.4,54.1c-2.3-1.7-7.9-1.7-9.4,0.1C43.8,56,49.5,56,51.4,54.1z M46.5,60c1.3-0.2,2.5-0.3,3.8-0.6c0.3-0.1,0.7-0.4,1-0.6
	c-0.3-0.3-0.5-0.6-0.9-0.8c-1.7-0.9-3.5-1-5.3-0.7c-0.9,0.2-1.7,0.5-2.6,0.9c-0.3,0.1-0.3,0.4-0.6,0.6c0.3,0.2,0.4,0.4,0.7,0.5
	C43.9,59.5,45.2,59.7,46.5,60z M42.3,62.6c2,1.5,6.7,1.5,8.6,0C49.3,60.7,44,60.7,42.3,62.6z M51,50.2c-2-1.4-7.2-1.3-8.7,0.1
	C44.4,51.6,49,51.5,51,50.2z M44,65.8c1.2,1,3.9,1,5.2,0C48.6,64.5,45,64.4,44,65.8z M44.1,28c-1-0.1-1.6,0.3-1.9,1.1
	c-0.1,0.3,0.1,0.6,0.1,0.9c0.3-0.1,0.8,0,0.9-0.3C43.6,29.3,43.7,28.7,44.1,28z M49.9,28c0.1,0.8,0.3,1.4,0.8,1.8
	c0.2,0.2,0.5,0.2,0.8,0.1c0.1,0,0.3-0.3,0.3-0.4C51.7,28.8,50.7,27.9,49.9,28z"/>
<path class="st1" d="M51.2,45.9c-1.2-0.6-2.4-1.2-3.5-1.8c-0.5-0.3-0.9-0.3-1.3,0c-1.1,0.6-2.3,1.1-3.6,1.8c0.2-0.9,0.3-1.7,0.4-2.5
	c0-0.3,0-0.5,0.2-0.7c0.4-1,0.1-1.7-0.8-2.4c-0.8-0.6-1.5-1.4-2.4-2.3c0.6-0.1,1-0.2,1.3-0.3c1-0.1,1.8-0.3,2.8-0.3
	c0.3-0.1,0.6-0.3,0.7-0.5c0.5-1,1-1.9,1.4-2.9c0.1-0.3,0.3-0.4,0.4-0.9c0.5,1,1,1.9,1.4,2.8c0.7,1.5,0.7,1.4,2.4,1.7
	c1,0.1,1.9,0.3,3,0.4c-0.3,0.3-0.5,0.6-0.7,0.9c-0.7,0.7-1.5,1.5-2.2,2.2c-0.3,0.2-0.4,0.4-0.3,0.7C50.6,43,50.8,44.4,51.2,45.9z"/>
<path class="st2" d="M39.3,56.5c0.1,0,0.1,0,0.2,0C39.5,56.5,39.5,56.5,39.3,56.5C39.4,56.5,39.4,56.5,39.3,56.5z"/>
<path class="st3" d="M55.9,41.3L55.9,41.3C55.9,41.2,55.9,41.2,55.9,41.3C56,41.2,55.9,41.2,55.9,41.3z"/>
<path d="M184.5,44.8c0.6-0.4,0.9-0.7,1.4-0.7c2.9-0.4,3.6-1.1,3.6-4c0-6.2,0-12.5,0-18.7c0-2.5-0.6-4.1-3.7-4.1
	c-0.3,0-0.6-0.4-0.9-0.7c0.1-0.2,0.2-0.4,0.2-0.7c6,0.3,12.1,0.1,18,0.9c7.3,1.1,11.4,6.8,11.1,14.3c-0.3,7.6-4.7,13-12.1,13.6
	C196.4,45.1,190.7,44.8,184.5,44.8z M193.4,17.8c0,0.7,0,1.3,0,1.8c0,6,0,12.1,0,18.1c0,5.1,0.7,5.8,5.9,5.5
	c4.9-0.3,8.2-2.9,9.5-7.8c0.9-3.4,0.8-6.8-0.1-10.2c-1.1-3.7-3.5-6.1-7.3-6.8C198.9,17.8,196.2,17.9,193.4,17.8z"/>
<path d="M116.3,29.2c1.3,0.8,2.5,1.6,3.6,2.5c3.9,4,2.4,10.2-2.8,12.3c-1.2,0.4-2.3,0.8-3.5,0.8c-5.4,0.1-10.7,0-16.1,0
	c-0.1-0.1-0.1-0.3-0.2-0.4c0.3-0.2,0.6-0.5,1.1-0.5c2.9-0.4,3.5-0.8,3.6-3.9c0.1-6.5,0.1-13,0-19.5c0-2.7-0.7-3.2-3.4-3.5
	c-0.4,0-0.7-0.4-1.5-0.8c5.8,0,11.1-0.2,16.3,0.1c3.2,0.2,5.5,2.1,6.2,5.4c0.6,2.5-0.2,4.6-2.1,6.4
	C116.9,28.6,116.6,28.9,116.3,29.2z M106,30.7c0,3.4,0,6.7,0,10c0,1.4,0.9,2.2,2.3,2.3c1.5,0.1,3.1,0.2,4.5,0
	c3.1-0.4,4.8-2.8,4.8-6.2c0-3.4-1.9-5.9-5.1-6.2C110.5,30.5,108.3,30.7,106,30.7z M105.9,17.9c0,3.6,0,7.2,0,10.6
	c1.8,0,3.5,0.1,5.1,0c2.7-0.3,4.3-2.2,4.3-5.2s-1.6-5.2-4.2-5.4C109.4,17.8,107.7,17.9,105.9,17.9z"/>
<path d="M310.6,35.8c0,2.2-0.1,4,0,5.7c0.1,1.4,0.8,2.2,2.3,2.4c0.4,0.1,0.9,0.3,1.4,0.5c0,0.2-0.1,0.3-0.1,0.5c-3.6,0-7.3,0-10.8,0
	c-0.1-0.1-0.2-0.2-0.2-0.3c0.3-0.2,0.6-0.6,0.9-0.6c1.8-0.1,2.7-1.2,2.7-2.8c0.1-4.4,0.1-8.8,0-13.3c-0.1-2-0.7-2.3-2.7-2.7
	c-0.3-0.1-0.5-0.4-0.8-0.6c0.3-0.1,0.5-0.4,0.8-0.4c3.7,0,7.3-0.1,11,0.1c2.5,0.1,4.6,1.4,5.6,3.8c1.2,2.9-0.4,6.1-3.5,7.3
	c-0.5,0.2-1.2,0.3-1.9,0.6c0.9,1.2,1.9,2.3,2.8,3.4c0.9,1.1,2.1,2,3.2,3.1c0.9,0.9,2.7,0.7,3.5,2.4c-2.1,0-3.9,0.1-5.7,0
	c-0.4,0-0.9-0.4-1.3-0.8c-1.8-2.4-3.6-4.8-5.4-7.2C312,36.5,311.2,36.3,310.6,35.8z M310.5,34.3c2.2-0.1,4.5,0.6,5.9-1.7
	c0.9-1.7,0.9-3.5-0.2-5.1c-1.5-2.1-3.7-1.6-5.8-1.6C310.5,28.7,310.5,31.3,310.5,34.3z"/>
<path d="M162.9,26.1c0.9-0.4,0.2-2.2,1.9-2c0,2.8,0,5.6,0,8.2c-0.1,0.1-0.2,0.2-0.3,0.2c-0.3-0.4-0.6-0.7-0.8-1.2
	c-0.8-1.5-1.4-3.2-2.4-4.3c-2.8-3.2-7.9-2.6-10,1.1c-2.2,4-2.3,8.3-0.1,12.4c2,3.8,7.7,4.3,10.6,1.3c1.6-1.6,1.2-3.7-0.8-4.5
	c-0.3-0.1-0.7-0.2-1.1-0.3c-0.4-0.2-0.8-0.5-1.3-0.7c0.5-0.1,0.9-0.4,1.5-0.4c2.6,0,5.2,0,7.8,0c0.3,0,0.6,0,0.9,0
	c0.2,0,0.4,0.3,0.4,0.4c0,0.2-0.2,0.5-0.4,0.5c-3.6,0.1-3.3,2.8-3.3,5.2c0,0.6,0,1.2,0,1.7c-2.2,0.6-4.2,1.2-6.2,1.7
	c-4.4,1.2-8.2-0.2-11-3.7c-3.1-3.9-3.5-8.2-1.2-12.5c2.1-4,5.6-6.1,10.2-5.9C159.1,23.4,160.6,24.2,162.9,26.1z"/>
<path d="M279.9,24.2c5.5,0,11.1,0,16.7,0c0.1,1.9,0.2,3.8,0.4,5.6c-0.1,0.1-0.2,0.2-0.4,0.3c-0.3-0.3-0.7-0.6-0.8-0.9
	c-0.8-2.5-1.4-2.9-4-3.2c-1.1-0.1-2.1-0.1-3.2-0.1c-0.4,0-0.9,0-1.5,0c0,2.4,0,4.7,0,7.3c1.3-0.1,2.5-0.2,3.8-0.4
	c1.2-0.3,1.4-1.3,1.5-2.4c0-0.4,0.3-0.7,0.5-1.2c0.2,0.1,0.3,0.1,0.5,0.2c0,2.8,0,5.8,0,8.6c0,0.2-0.3,0.4-0.4,0.6
	c-0.2-0.1-0.5-0.2-0.6-0.4c-0.3-0.8-0.4-2.3-1.1-2.6c-1.3-0.6-2.7-0.6-4.5-0.9c0.1,2.3,0.1,4.3,0.3,6.2c0.1,1.4,1.1,2.2,2.4,2.2
	c1.2,0.1,2.3,0.1,3.5,0c2.4-0.2,2.9-0.7,3.8-3.1c0.1-0.4,0.5-0.7,0.7-1.1c0.1,0.1,0.3,0.1,0.4,0.2c-0.1,1.9-0.2,3.7-0.3,5.7
	c-5.9,0-11.9,0-18.3,0c0.5-0.5,0.7-0.8,1.1-0.9c2.3-0.5,2.8-1.1,2.9-3.5c0.1-4,0.1-7.9,0-11.9c0-2.2-0.7-3.5-2.9-3.5
	c-0.3,0-0.5-0.4-0.8-0.6C279.7,24.5,279.8,24.4,279.9,24.2z"/>
<path d="M244.5,36.3c0,1.8-0.1,3.4,0,5.1c0.1,1.6,0.8,2.5,2.5,2.6c0.4,0,0.7,0.3,1.2,0.5c-0.1,0.1-0.1,0.3-0.2,0.4
	c-3.6,0-7.3,0-10.8,0c-0.1-0.1-0.1-0.2-0.2-0.3c0.3-0.2,0.6-0.5,1.1-0.6c2-0.4,2.6-0.9,2.7-2.9c0.1-4.2,0.1-8.5,0-12.7
	c0-2.1-0.6-2.6-2.8-3.1c-0.3-0.1-0.6-0.4-0.7-0.8c4,0,8.1-0.3,12.1,0.1c4.3,0.4,6.6,4.3,5.1,7.9c-0.9,2.2-2.8,3.3-5.2,3.6
	C247.7,36.1,246.1,36.1,244.5,36.3z M244.5,34.3c2.2-0.1,4.5,0.6,5.9-1.7c0.9-1.7,0.9-3.5-0.2-5.1c-1.5-2.1-3.7-1.5-5.7-1.6
	C244.5,28.7,244.5,31.4,244.5,34.3z"/>
<path d="M266.4,36.3c0,1.8-0.1,3.4,0,4.9c0.1,1.9,0.7,2.4,2.6,2.7c0.4,0.1,0.7,0.3,1.2,0.5c-0.1,0.1-0.1,0.3-0.2,0.4
	c-3.7,0-7.4,0-11.1,0c-0.1-0.1-0.1-0.3-0.2-0.4c0.4-0.2,0.7-0.5,1.2-0.5c1.9-0.4,2.6-0.8,2.6-2.8c0.1-4.3,0.1-8.6,0-13
	c-0.1-2.2-0.7-2.6-2.8-3.1c-0.3-0.1-0.5-0.4-0.8-0.6c0.3-0.1,0.5-0.4,0.8-0.4c3.7,0,7.3-0.1,11,0.1c2.6,0.2,4.8,1.4,5.7,4.1
	c1.2,3.6-1.2,6.8-5.3,7.5C269.6,36.1,267.9,36.1,266.4,36.3z M266.3,34.3c2.2-0.1,4.5,0.6,6-1.7c0.9-1.5,0.8-3.9-0.2-5.2
	c-1.6-1.9-3.7-1.4-5.8-1.5C266.3,28.7,266.3,31.3,266.3,34.3z"/>
<path d="M139.5,45c-3.6,0-7.2,0-10.8,0c-0.1-0.1-0.2-0.2-0.2-0.3c0.3-0.2,0.6-0.6,0.9-0.6c2.1,0,2.8-1.5,2.8-3.1
	c0.1-4.2,0.1-8.4,0-12.6c0-2.2-0.7-2.7-2.8-3.1c-0.3-0.1-0.6-0.4-0.8-0.5c0.3-0.2,0.6-0.4,0.9-0.4c3.1,0,6.2,0,9.3,0
	c0.3,0,0.5,0.2,0.8,0.4c-0.3,0.2-0.5,0.5-0.8,0.6c-2.2,0.4-2.8,0.8-2.8,3.2c-0.1,4.1-0.1,8.1,0,12.2c0,2.5,0.5,2.9,2.9,3.5
	c0.3,0.1,0.6,0.4,0.8,0.6C139.6,44.7,139.5,44.9,139.5,45z"/>
<path d="M231.1,24.7c-0.3,0.2-0.6,0.5-0.9,0.5c-2,0.3-2.7,0.8-2.7,2.9c-0.1,4.2-0.1,8.5,0,12.8c0,2.1,0.6,2.6,2.8,3.1
	c0.3,0.1,0.6,0.4,0.9,0.6c-0.1,0.1-0.1,0.2-0.2,0.3c-3.7,0-7.3,0-11,0c-0.1-0.1-0.1-0.3-0.2-0.4c0.3-0.2,0.7-0.5,1.1-0.6
	c2-0.4,2.6-0.9,2.7-3.1c0.1-4.2,0.1-8.4,0-12.6c0-2.2-0.6-2.7-2.8-3.2c-0.3-0.1-0.5-0.3-0.7-0.5c0.3-0.2,0.5-0.5,0.8-0.5
	c3.4,0,6.7,0,10,0C231,24.4,231.1,24.5,231.1,24.7z"/>
<g>
	<path d="M124.2,52.5l-5.1,20.2h-3.1L112,55.9l-4,16.7H105l-5.2-20.2h2.7l4.1,16.7l4-16.7h2.7l4.1,17l4-17H124.2z"/>
	<path d="M124.7,72.6l6.8-20.2h3.3l6.8,20.2h-2.8l-1.8-5.7h-7.7l-1.8,5.7H124.7z M136.2,64.7l-3.2-9.5l-3.1,9.5H136.2z"/>
	<path d="M158.4,72.6h-3.1l-4.9-8.1l-4.9,8.1h-2.9l6.4-10.1l-6.2-10.1h3.1l4.8,7.9l4.8-7.9h2.9l-6.3,9.9L158.4,72.6z"/>
	<path d="M193.6,52.5l-5.1,20.2h-3.1l-4.1-16.7l-4,16.7h-2.9l-5.2-20.2h2.7l4.1,16.7l4-16.7h2.7l4.1,17l4-17H193.6z"/>
	<path d="M211.2,54.8c0.7,0.8,1.4,2,1.8,3.3c0.4,1.3,0.6,2.8,0.6,4.5s-0.2,3.2-0.6,4.4c-0.4,1.4-1.1,2.4-1.8,3.4
		c-0.8,0.9-1.8,1.6-2.8,2.1c-1.1,0.4-2.3,0.6-3.6,0.6c-1.4,0-2.6-0.2-3.7-0.7c-1.1-0.4-2-1.2-2.8-2.1c-0.7-0.8-1.4-2-1.8-3.3
		c-0.4-1.3-0.6-2.7-0.6-4.4c0-1.7,0.2-3.2,0.6-4.4c0.4-1.3,1.1-2.4,1.8-3.3c0.7-0.8,1.7-1.6,2.8-2c1.1-0.4,2.3-0.7,3.7-0.7
		c1.4,0,2.6,0.2,3.7,0.7C209.5,53.2,210.5,53.9,211.2,54.8z M210.9,62.6c0-1.4-0.1-2.5-0.4-3.6c-0.3-1.1-0.7-1.9-1.3-2.5
		c-0.5-0.7-1.2-1.3-1.9-1.6c-0.7-0.3-1.6-0.5-2.5-0.5c-0.9,0-1.8,0.2-2.5,0.5c-0.7,0.3-1.4,0.8-1.9,1.6c-0.5,0.7-0.9,1.6-1.3,2.6
		c-0.3,1.1-0.4,2.2-0.4,3.5c0,2.6,0.5,4.6,1.7,6.1c1.2,1.4,2.6,2.1,4.4,2.1c1.8,0,3.4-0.7,4.4-2.1C210.3,67.2,210.9,65.2,210.9,62.6
		z"/>
	<path d="M233.1,72.6h-3.5l-6.4-8h-3.1v8h-2.6V52.5h5.2c1.2,0,2.1,0.1,2.9,0.2c0.7,0.1,1.5,0.4,2.2,0.8c0.7,0.4,1.3,1.1,1.7,1.8
		c0.4,0.7,0.6,1.6,0.6,2.6c0,1.5-0.4,2.7-1.2,3.7c-0.7,0.9-1.8,1.7-3.1,2.2L233.1,72.6z M227.3,58.2c0-0.6-0.1-1.2-0.3-1.6
		c-0.2-0.4-0.5-0.8-0.9-1.2c-0.4-0.2-0.8-0.4-1.4-0.5s-1.2-0.1-1.9-0.1h-2.6v7.6h2.3c0.7,0,1.5-0.1,2.1-0.2c0.6-0.1,1.2-0.4,1.6-0.8
		c0.4-0.4,0.6-0.8,0.8-1.4C227.2,59.4,227.3,58.8,227.3,58.2z"/>
	<path d="M250.4,72.6h-3.5l-7.4-9.4l-1.2,1.4v8.1h-2.6V52.5h2.6v9.3l8.2-9.3h3.3l-8.3,9.1L250.4,72.6z"/>
	<path d="M258.5,73c-1.5,0-2.7-0.1-3.7-0.4c-1.1-0.3-2-0.6-2.8-1.2v-3.4h0.2c0.8,0.8,1.9,1.5,3.1,1.9c1.2,0.4,2.2,0.6,3.3,0.6
		c1.5,0,2.6-0.3,3.4-0.9c0.7-0.6,1.2-1.5,1.2-2.4c0-0.8-0.2-1.5-0.6-2c-0.4-0.5-1.1-0.8-1.9-1.2c-0.6-0.2-1.2-0.3-1.7-0.4
		c-0.5-0.1-1.2-0.3-1.9-0.5s-1.4-0.4-1.9-0.7c-0.5-0.3-1.1-0.6-1.5-1.1s-0.7-0.9-0.9-1.6c-0.2-0.6-0.3-1.3-0.3-2.1
		c0-1.7,0.6-3.1,1.9-4.1c1.3-1.2,2.9-1.7,4.8-1.7c1.2,0,2.2,0.1,3.2,0.3c1.1,0.2,1.9,0.5,2.8,0.9v3.2h-0.2c-0.6-0.6-1.5-1.1-2.4-1.6
		c-1.1-0.4-2.1-0.6-3.2-0.6c-1.3,0-2.2,0.3-3.1,0.8c-0.7,0.6-1.2,1.4-1.2,2.3c0,0.8,0.2,1.6,0.6,2c0.4,0.5,1.2,0.8,2,1.2
		c0.5,0.1,1.3,0.3,2.1,0.5s1.5,0.4,2,0.5c1.4,0.4,2.4,1.1,3.1,1.9c0.6,0.8,0.9,1.9,0.9,3.2c0,0.7-0.2,1.6-0.5,2.3
		c-0.3,0.7-0.7,1.4-1.4,2s-1.4,1.1-2.2,1.4C260.7,72.8,259.7,73,258.5,73z"/>
</g>
</svg>
