<svg xmlns="http://www.w3.org/2000/svg" viewBox="0 0 2500 800" fill="#34313F">
  <path d="M349.2 135.1H154.8L0 289.9l232.4 232.4h-.2L387.1 677l154.8-154.8-192.7-192.7 192.7-192.7zm-38.6 348.5H195.4l-57.5-57.5H253l57.6 57.5zm57.5-135.5H252.9l-57.5-57.5H310.6l57.5 57.5z"/>
  <path d="M700 340.5c0-36.8-24.2-57.9-55.6-57.9-20.7 0-38.6 9.6-48.5 27.1h-.7v-23.2h-42.4v268.8h44.7V408c0-29.3 16.8-52.1 43.9-52.1 25.3 0 36.1 16.8 36.1 42.8v156.6h44.7V340.5zm118.5-54.1c-73.4 0-117.7 55.6-117.7 134.4 0 79.9 47.8 134.4 118.1 134.4 50.3 0 90.7-26.4 107.5-68.8l-41.7-12.9c-10.7 27.5-33.6 43.2-64.3 43.2-42.8 0-72.3-28.2-75.6-75.6h186.9v-18.5c0-84.5-40-136.2-113.2-136.2zm-73 111.3c5.5-44.7 33.2-73 72.3-73 40 0 64.3 28.6 67.3 73h-139.6z"/>
  <path d="M1092.5 286.4h-42.4v23.2h-.7c-14.3-19.2-36.8-27.1-62.9-27.1-67.3 0-111.7 57.5-111.7 136.9 0 78 42.4 135.8 110.6 135.8 25.3 0 49.6-9.6 63.6-27.8h.7v24.2c0 51-22.1 75.2-65 75.2-30.7 0-52.5-14.6-61.1-40.3l-42.4 15c15.7 42.8 53.5 63.6 102.8 63.6 75.9 0 108.5-45 108.5-115.2V286.4zm-98.1 231.3c-45.3 0-73.8-33.6-73.8-97.8 0-61.8 27.5-98.5 73.4-98.5 44.7 0 73 37.5 73 98.1 0 62.5-28.2 98.2-72.6 98.2z"/>
  <path d="M1207.8 286.4h-44.7v268.8h44.7V286.4zm-22.5-32.5c16.4 0 28.6-12.5 28.6-28.6 0-16.4-12.1-28.6-28.6-28.6-16.1 0-28.6 12.1-28.6 28.6 0 16.1 12.5 28.6 28.6 28.6z"/>
  <path d="M1381.5 286.4h-56.4v-67h-44.7v67h-40v38.6h40v173.4c0 42.4 24.6 60 60.7 60 14.3 0 29.3-3.6 40.3-9.3v-38.2c-8.6 4.6-18.2 7.5-28.9 7.5-18.9 0-27.5-8.9-27.5-29.3V325h56.4v-38.6z"/>
  <path d="M1582.7 286.4h-42.4v23.2h-.7c-14.3-19.2-36.8-27.1-62.9-27.1-67.3 0-111.7 57.5-111.7 136.9 0 78 42.4 135.8 110.6 135.8 25.3 0 49.6-9.6 63.6-27.8h.7v24.2c0 51-22.1 75.2-65 75.2-30.7 0-52.5-14.6-61.1-40.3l-42.4 15c15.7 42.8 53.5 63.6 102.8 63.6 75.9 0 108.5-45 108.5-115.2V286.4zm-98.1 231.3c-45.3 0-73.8-33.6-73.8-97.8 0-61.8 27.5-98.5 73.4-98.5 44.7 0 73 37.5 73 98.1 0 62.5-28.2 98.2-72.6 98.2z"/>
</svg>